<mxfile host="drawio-plugin" modified="2022-12-21T10:14:54.674Z" agent="5.0 (Windows NT 6.2; Win64; x64) AppleWebKit/537.36 (KHTML, like Gecko) Chrome/98.0.4758.102 Safari/537.36" etag="BMWe_2QtVLifu1yssYBg" version="20.5.3" type="embed"><diagram id="23iRSUPoRavnBvh4doch" name="Polish Your Acent"><mxGraphModel dx="488" dy="528" grid="1" gridSize="10" guides="1" tooltips="1" connect="1" arrows="1" fold="1" page="1" pageScale="1" pageWidth="827" pageHeight="1169" background="#F4F1DE" math="0" shadow="1"><root><mxCell id="0"/><mxCell id="1" parent="0"/><mxCell id="52" value="" style="rounded=1;whiteSpace=wrap;html=1;fillColor=#F2CC8F;strokeColor=#E07A5F;fontColor=#393C56;sketch=1;" parent="1" vertex="1"><mxGeometry x="150" y="670" width="180" height="250" as="geometry"/></mxCell><mxCell id="48" value="" style="rounded=1;whiteSpace=wrap;html=1;fillColor=#F2CC8F;strokeColor=#E07A5F;fontColor=#393C56;sketch=1;" parent="1" vertex="1"><mxGeometry x="520" y="640" width="160" height="200" as="geometry"/></mxCell><mxCell id="23" value="" style="whiteSpace=wrap;html=1;aspect=fixed;fillColor=#F2CC8F;strokeColor=#E07A5F;fontColor=#393C56;rounded=1;sketch=1;" parent="1" vertex="1"><mxGeometry x="350" y="110" width="180" height="180" as="geometry"/></mxCell><mxCell id="3" value="" style="whiteSpace=wrap;html=1;aspect=fixed;fillColor=#F2CC8F;strokeColor=#E07A5F;fontColor=#393C56;rounded=1;sketch=1;" parent="1" vertex="1"><mxGeometry x="70" y="130" width="170" height="170" as="geometry"/></mxCell><mxCell id="4" value="REGISTER" style="rounded=1;whiteSpace=wrap;html=1;align=center;fillColor=#F2CC8F;strokeColor=#E07A5F;fontColor=#393C56;sketch=1;" parent="1" vertex="1"><mxGeometry x="90" y="150" width="120" height="60" as="geometry"/></mxCell><mxCell id="5" value="LOGIN" style="rounded=1;whiteSpace=wrap;html=1;fillColor=#F2CC8F;strokeColor=#E07A5F;fontColor=#393C56;sketch=1;" parent="1" vertex="1"><mxGeometry x="90" y="220" width="120" height="60" as="geometry"/></mxCell><mxCell id="7" value="LOGIN" style="rounded=1;whiteSpace=wrap;html=1;fillColor=#F2CC8F;strokeColor=#E07A5F;fontColor=#393C56;sketch=1;" parent="1" vertex="1"><mxGeometry x="380" y="130" width="120" height="60" as="geometry"/></mxCell><mxCell id="11" value="" style="whiteSpace=wrap;html=1;aspect=fixed;fillColor=#F2CC8F;strokeColor=#E07A5F;fontColor=#393C56;rounded=1;sketch=1;" parent="1" vertex="1"><mxGeometry x="210" y="380" width="220" height="220" as="geometry"/></mxCell><mxCell id="14" value="" style="endArrow=classic;html=1;rounded=1;entryX=0.75;entryY=0;entryDx=0;entryDy=0;exitX=0.5;exitY=1;exitDx=0;exitDy=0;labelBackgroundColor=#F4F1DE;strokeColor=#E07A5F;fontColor=#393C56;sketch=1;" parent="1" source="23" target="11" edge="1"><mxGeometry relative="1" as="geometry"><mxPoint x="382.5" y="300" as="sourcePoint"/><mxPoint x="440" y="350" as="targetPoint"/></mxGeometry></mxCell><mxCell id="15" value="HOME" style="edgeLabel;resizable=0;html=1;align=center;verticalAlign=middle;labelBackgroundColor=#F4F1DE;fontColor=#393C56;rounded=1;sketch=1;" parent="14" connectable="0" vertex="1"><mxGeometry relative="1" as="geometry"/></mxCell><mxCell id="16" value="" style="endArrow=classic;html=1;rounded=1;exitX=1;exitY=1;exitDx=0;exitDy=0;entryX=0.25;entryY=0;entryDx=0;entryDy=0;labelBackgroundColor=#F4F1DE;strokeColor=#E07A5F;fontColor=#393C56;sketch=1;" parent="1" source="3" target="11" edge="1"><mxGeometry relative="1" as="geometry"><mxPoint x="200" y="330" as="sourcePoint"/><mxPoint x="300" y="330" as="targetPoint"/></mxGeometry></mxCell><mxCell id="17" value="LOGIN" style="edgeLabel;resizable=0;html=1;align=center;verticalAlign=middle;labelBackgroundColor=#F4F1DE;fontColor=#393C56;rounded=1;sketch=1;" parent="16" connectable="0" vertex="1"><mxGeometry relative="1" as="geometry"/></mxCell><mxCell id="18" value="" style="endArrow=classic;html=1;rounded=1;exitX=1;exitY=0.5;exitDx=0;exitDy=0;entryX=0;entryY=0.5;entryDx=0;entryDy=0;labelBackgroundColor=#F4F1DE;strokeColor=#E07A5F;fontColor=#393C56;sketch=1;" parent="1" source="4" target="7" edge="1"><mxGeometry relative="1" as="geometry"><mxPoint x="250" y="210" as="sourcePoint"/><mxPoint x="350" y="210" as="targetPoint"/></mxGeometry></mxCell><mxCell id="19" value="REGISTER" style="edgeLabel;resizable=0;html=1;align=center;verticalAlign=middle;labelBackgroundColor=#F4F1DE;fontColor=#393C56;rounded=1;sketch=1;" parent="18" connectable="0" vertex="1"><mxGeometry relative="1" as="geometry"/></mxCell><mxCell id="8" value="PASSWORD" style="rounded=1;whiteSpace=wrap;html=1;fillColor=#F2CC8F;strokeColor=#E07A5F;fontColor=#393C56;sketch=1;" parent="1" vertex="1"><mxGeometry x="380" y="210" width="120" height="60" as="geometry"/></mxCell><mxCell id="24" value="" style="rounded=1;whiteSpace=wrap;html=1;fillColor=#F2CC8F;strokeColor=#E07A5F;fontColor=#393C56;sketch=1;" parent="1" vertex="1"><mxGeometry x="600" y="220" width="110" height="320" as="geometry"/></mxCell><mxCell id="25" value="" style="endArrow=classic;html=1;rounded=1;exitX=1;exitY=0.25;exitDx=0;exitDy=0;entryX=0;entryY=0.5;entryDx=0;entryDy=0;labelBackgroundColor=#F4F1DE;strokeColor=#E07A5F;fontColor=#393C56;sketch=1;" parent="1" source="11" target="24" edge="1"><mxGeometry relative="1" as="geometry"><mxPoint x="560" y="400" as="sourcePoint"/><mxPoint x="660" y="400" as="targetPoint"/></mxGeometry></mxCell><mxCell id="26" value="My account" style="edgeLabel;resizable=0;html=1;align=center;verticalAlign=middle;labelBackgroundColor=#F4F1DE;fontColor=#393C56;rounded=1;sketch=1;" parent="25" connectable="0" vertex="1"><mxGeometry relative="1" as="geometry"/></mxCell><mxCell id="28" value="Name" style="rounded=1;whiteSpace=wrap;html=1;fillColor=#F2CC8F;strokeColor=#E07A5F;fontColor=#393C56;sketch=1;" parent="1" vertex="1"><mxGeometry x="610" y="240" width="90" height="40" as="geometry"/></mxCell><mxCell id="31" value="" style="shape=table;html=1;whiteSpace=wrap;startSize=0;container=1;collapsible=0;childLayout=tableLayout;fillColor=#F2CC8F;strokeColor=#E07A5F;fontColor=#393C56;rounded=1;sketch=1;" parent="1" vertex="1"><mxGeometry x="230" y="400" width="180" height="180" as="geometry"/></mxCell><mxCell id="32" value="" style="shape=tableRow;horizontal=0;startSize=0;swimlaneHead=0;swimlaneBody=0;top=0;left=0;bottom=0;right=0;collapsible=0;dropTarget=0;fillColor=none;points=[[0,0.5],[1,0.5]];portConstraint=eastwest;strokeColor=#E07A5F;fontColor=#393C56;rounded=1;sketch=1;" parent="31" vertex="1"><mxGeometry width="180" height="60" as="geometry"/></mxCell><mxCell id="33" value="Lesson 1" style="shape=partialRectangle;html=1;whiteSpace=wrap;connectable=0;fillColor=none;top=0;left=0;bottom=0;right=0;overflow=hidden;strokeColor=#E07A5F;fontColor=#393C56;rounded=1;sketch=1;" parent="32" vertex="1"><mxGeometry width="60" height="60" as="geometry"><mxRectangle width="60" height="60" as="alternateBounds"/></mxGeometry></mxCell><mxCell id="34" value="" style="shape=partialRectangle;html=1;whiteSpace=wrap;connectable=0;fillColor=none;top=0;left=0;bottom=0;right=0;overflow=hidden;strokeColor=#E07A5F;fontColor=#393C56;rounded=1;sketch=1;" parent="32" vertex="1"><mxGeometry x="60" width="60" height="60" as="geometry"><mxRectangle width="60" height="60" as="alternateBounds"/></mxGeometry></mxCell><mxCell id="35" value="" style="shape=partialRectangle;html=1;whiteSpace=wrap;connectable=0;fillColor=none;top=0;left=0;bottom=0;right=0;overflow=hidden;strokeColor=#E07A5F;fontColor=#393C56;rounded=1;sketch=1;" parent="32" vertex="1"><mxGeometry x="120" width="60" height="60" as="geometry"><mxRectangle width="60" height="60" as="alternateBounds"/></mxGeometry></mxCell><mxCell id="36" value="" style="shape=tableRow;horizontal=0;startSize=0;swimlaneHead=0;swimlaneBody=0;top=0;left=0;bottom=0;right=0;collapsible=0;dropTarget=0;fillColor=none;points=[[0,0.5],[1,0.5]];portConstraint=eastwest;strokeColor=#E07A5F;fontColor=#393C56;rounded=1;sketch=1;" parent="31" vertex="1"><mxGeometry y="60" width="180" height="60" as="geometry"/></mxCell><mxCell id="37" value="Lesson 2" style="shape=partialRectangle;html=1;whiteSpace=wrap;connectable=0;fillColor=none;top=0;left=0;bottom=0;right=0;overflow=hidden;strokeColor=#E07A5F;fontColor=#393C56;rounded=1;sketch=1;" parent="36" vertex="1"><mxGeometry width="60" height="60" as="geometry"><mxRectangle width="60" height="60" as="alternateBounds"/></mxGeometry></mxCell><mxCell id="38" value="" style="shape=partialRectangle;html=1;whiteSpace=wrap;connectable=0;fillColor=none;top=0;left=0;bottom=0;right=0;overflow=hidden;strokeColor=#E07A5F;fontColor=#393C56;rounded=1;sketch=1;" parent="36" vertex="1"><mxGeometry x="60" width="60" height="60" as="geometry"><mxRectangle width="60" height="60" as="alternateBounds"/></mxGeometry></mxCell><mxCell id="39" value="" style="shape=partialRectangle;html=1;whiteSpace=wrap;connectable=0;fillColor=none;top=0;left=0;bottom=0;right=0;overflow=hidden;strokeColor=#E07A5F;fontColor=#393C56;rounded=1;sketch=1;" parent="36" vertex="1"><mxGeometry x="120" width="60" height="60" as="geometry"><mxRectangle width="60" height="60" as="alternateBounds"/></mxGeometry></mxCell><mxCell id="40" value="" style="shape=tableRow;horizontal=0;startSize=0;swimlaneHead=0;swimlaneBody=0;top=0;left=0;bottom=0;right=0;collapsible=0;dropTarget=0;fillColor=none;points=[[0,0.5],[1,0.5]];portConstraint=eastwest;strokeColor=#E07A5F;fontColor=#393C56;rounded=1;sketch=1;" parent="31" vertex="1"><mxGeometry y="120" width="180" height="60" as="geometry"/></mxCell><mxCell id="41" value="Lesson 3" style="shape=partialRectangle;html=1;whiteSpace=wrap;connectable=0;fillColor=none;top=0;left=0;bottom=0;right=0;overflow=hidden;strokeColor=#E07A5F;fontColor=#393C56;rounded=1;sketch=1;" parent="40" vertex="1"><mxGeometry width="60" height="60" as="geometry"><mxRectangle width="60" height="60" as="alternateBounds"/></mxGeometry></mxCell><mxCell id="42" value="" style="shape=partialRectangle;html=1;whiteSpace=wrap;connectable=0;fillColor=none;top=0;left=0;bottom=0;right=0;overflow=hidden;strokeColor=#E07A5F;fontColor=#393C56;rounded=1;sketch=1;" parent="40" vertex="1"><mxGeometry x="60" width="60" height="60" as="geometry"><mxRectangle width="60" height="60" as="alternateBounds"/></mxGeometry></mxCell><mxCell id="43" value="" style="shape=partialRectangle;html=1;whiteSpace=wrap;connectable=0;fillColor=none;top=0;left=0;bottom=0;right=0;overflow=hidden;pointerEvents=1;strokeColor=#E07A5F;fontColor=#393C56;rounded=1;sketch=1;" parent="40" vertex="1"><mxGeometry x="120" width="60" height="60" as="geometry"><mxRectangle width="60" height="60" as="alternateBounds"/></mxGeometry></mxCell><mxCell id="44" value="" style="endArrow=classic;html=1;rounded=1;exitX=0;exitY=1;exitDx=0;exitDy=0;entryX=0.25;entryY=0;entryDx=0;entryDy=0;labelBackgroundColor=#F4F1DE;strokeColor=#E07A5F;fontColor=#393C56;sketch=1;" parent="1" source="11" target="52" edge="1"><mxGeometry relative="1" as="geometry"><mxPoint x="450" y="560" as="sourcePoint"/><mxPoint x="120" y="670" as="targetPoint"/><Array as="points"/></mxGeometry></mxCell><mxCell id="45" value="Lesson as Student" style="edgeLabel;resizable=0;html=1;align=center;verticalAlign=middle;labelBackgroundColor=#F4F1DE;fontColor=#393C56;rounded=1;sketch=1;" parent="44" connectable="0" vertex="1"><mxGeometry relative="1" as="geometry"/></mxCell><mxCell id="49" value="E1" style="rounded=1;whiteSpace=wrap;html=1;fillColor=#F2CC8F;strokeColor=#E07A5F;fontColor=#393C56;sketch=1;" parent="1" vertex="1"><mxGeometry x="540" y="680" width="120" height="30" as="geometry"/></mxCell><mxCell id="50" value="E2" style="rounded=1;whiteSpace=wrap;html=1;fillColor=#F2CC8F;strokeColor=#E07A5F;fontColor=#393C56;sketch=1;" parent="1" vertex="1"><mxGeometry x="540" y="720" width="120" height="30" as="geometry"/></mxCell><mxCell id="51" value="E3" style="rounded=1;whiteSpace=wrap;html=1;fillColor=#F2CC8F;strokeColor=#E07A5F;fontColor=#393C56;sketch=1;" parent="1" vertex="1"><mxGeometry x="540" y="760" width="120" height="30" as="geometry"/></mxCell><mxCell id="53" value="" style="rounded=1;whiteSpace=wrap;html=1;fillColor=#F2CC8F;strokeColor=#E07A5F;fontColor=#393C56;sketch=1;" parent="1" vertex="1"><mxGeometry x="200" y="740" width="120" height="170" as="geometry"/></mxCell><mxCell id="55" value="" style="rounded=1;whiteSpace=wrap;html=1;fillColor=#F2CC8F;strokeColor=#E07A5F;fontColor=#393C56;sketch=1;" parent="1" vertex="1"><mxGeometry x="190" y="730" width="120" height="170" as="geometry"/></mxCell><mxCell id="56" value="" style="rounded=1;whiteSpace=wrap;html=1;fillColor=#F2CC8F;strokeColor=#E07A5F;fontColor=#393C56;sketch=1;" parent="1" vertex="1"><mxGeometry x="180" y="720" width="120" height="170" as="geometry"/></mxCell><mxCell id="57" value="E1" style="rounded=1;whiteSpace=wrap;html=1;fillColor=#F2CC8F;strokeColor=#E07A5F;fontColor=#393C56;sketch=1;" parent="1" vertex="1"><mxGeometry x="170" y="707.5" width="120" height="170" as="geometry"/></mxCell><mxCell id="58" value="+" style="rounded=1;whiteSpace=wrap;html=1;fillColor=#F2CC8F;strokeColor=#E07A5F;fontColor=#393C56;sketch=1;" parent="1" vertex="1"><mxGeometry x="545" y="800" width="110" height="30" as="geometry"/></mxCell><mxCell id="59" value="" style="rounded=1;whiteSpace=wrap;html=1;fillColor=#F2CC8F;strokeColor=#E07A5F;fontColor=#393C56;sketch=1;" parent="1" vertex="1"><mxGeometry x="545" y="878" width="120" height="142" as="geometry"/></mxCell><mxCell id="60" value="" style="rounded=1;whiteSpace=wrap;html=1;fillColor=#F2CC8F;strokeColor=#E07A5F;fontColor=#393C56;sketch=1;" parent="1" vertex="1"><mxGeometry x="565" y="890" width="80" height="110" as="geometry"/></mxCell><mxCell id="61" value="" style="endArrow=classic;html=1;rounded=1;exitX=0.5;exitY=1;exitDx=0;exitDy=0;entryX=0.25;entryY=0;entryDx=0;entryDy=0;labelBackgroundColor=#F4F1DE;strokeColor=#E07A5F;fontColor=#393C56;sketch=1;" parent="1" source="48" target="59" edge="1"><mxGeometry relative="1" as="geometry"><mxPoint x="270" y="1000" as="sourcePoint"/><mxPoint x="370" y="1000" as="targetPoint"/></mxGeometry></mxCell><mxCell id="62" value="EDIT" style="edgeLabel;resizable=0;html=1;align=center;verticalAlign=middle;labelBackgroundColor=#F4F1DE;fontColor=#393C56;rounded=1;sketch=1;" parent="61" connectable="0" vertex="1"><mxGeometry relative="1" as="geometry"/></mxCell><mxCell id="63" value="" style="endArrow=classic;html=1;rounded=1;exitX=0.75;exitY=0;exitDx=0;exitDy=0;entryX=0.5;entryY=1;entryDx=0;entryDy=0;labelBackgroundColor=#F4F1DE;strokeColor=#E07A5F;fontColor=#393C56;sketch=1;" parent="1" source="59" target="48" edge="1"><mxGeometry relative="1" as="geometry"><mxPoint x="730" y="878" as="sourcePoint"/><mxPoint x="790" y="877.5" as="targetPoint"/></mxGeometry></mxCell><mxCell id="64" value="SAVE" style="edgeLabel;resizable=0;html=1;align=center;verticalAlign=middle;labelBackgroundColor=#F4F1DE;fontColor=#393C56;rounded=1;sketch=1;" parent="63" connectable="0" vertex="1"><mxGeometry relative="1" as="geometry"/></mxCell><mxCell id="71" value="" style="endArrow=classic;html=1;rounded=1;exitX=1;exitY=0.5;exitDx=0;exitDy=0;entryX=0.5;entryY=0;entryDx=0;entryDy=0;labelBackgroundColor=#F4F1DE;strokeColor=#E07A5F;fontColor=#393C56;sketch=1;" parent="1" source="40" target="48" edge="1"><mxGeometry relative="1" as="geometry"><mxPoint x="520" y="550" as="sourcePoint"/><mxPoint x="680" y="550" as="targetPoint"/><Array as="points"><mxPoint x="500" y="590"/></Array></mxGeometry></mxCell><mxCell id="72" value="Lesson as Specialist" style="edgeLabel;resizable=0;html=1;align=center;verticalAlign=middle;labelBackgroundColor=#F4F1DE;fontColor=#393C56;rounded=1;sketch=1;" parent="71" connectable="0" vertex="1"><mxGeometry relative="1" as="geometry"/></mxCell><mxCell id="73" value="EDIT" style="edgeLabel;resizable=0;html=1;align=left;verticalAlign=bottom;labelBackgroundColor=#F4F1DE;fontColor=#393C56;rounded=1;sketch=1;" parent="71" connectable="0" vertex="1"><mxGeometry x="-1" relative="1" as="geometry"/></mxCell><mxCell id="76" value="" style="endArrow=classic;html=1;rounded=1;exitX=0;exitY=0;exitDx=0;exitDy=0;entryX=1;entryY=1;entryDx=0;entryDy=0;labelBackgroundColor=#F4F1DE;strokeColor=#E07A5F;fontColor=#393C56;sketch=1;" parent="1" source="48" target="11" edge="1"><mxGeometry relative="1" as="geometry"><mxPoint x="420" y="690" as="sourcePoint"/><mxPoint x="580" y="690" as="targetPoint"/></mxGeometry></mxCell><mxCell id="77" value="Edited lesson" style="edgeLabel;resizable=0;html=1;align=center;verticalAlign=middle;labelBackgroundColor=#F4F1DE;fontColor=#393C56;rounded=1;sketch=1;" parent="76" connectable="0" vertex="1"><mxGeometry relative="1" as="geometry"/></mxCell><mxCell id="78" value="Save" style="edgeLabel;resizable=0;html=1;align=left;verticalAlign=bottom;labelBackgroundColor=#F4F1DE;fontColor=#393C56;rounded=1;sketch=1;" parent="76" connectable="0" vertex="1"><mxGeometry x="-1" relative="1" as="geometry"/></mxCell><mxCell id="79" value="" style="endArrow=classic;html=1;rounded=1;entryX=0.25;entryY=1;entryDx=0;entryDy=0;exitX=0.75;exitY=0;exitDx=0;exitDy=0;labelBackgroundColor=#F4F1DE;strokeColor=#E07A5F;fontColor=#393C56;sketch=1;" parent="1" source="52" target="11" edge="1"><mxGeometry relative="1" as="geometry"><mxPoint x="290" y="660" as="sourcePoint"/><mxPoint x="390" y="660" as="targetPoint"/><Array as="points"><mxPoint x="300" y="630"/></Array></mxGeometry></mxCell><mxCell id="80" value="Back after finished" style="edgeLabel;resizable=0;html=1;align=center;verticalAlign=middle;labelBackgroundColor=#F4F1DE;fontColor=#393C56;rounded=1;sketch=1;" parent="79" connectable="0" vertex="1"><mxGeometry relative="1" as="geometry"/></mxCell><mxCell id="81" value="Day without break" style="rounded=1;whiteSpace=wrap;html=1;fillColor=#F2CC8F;strokeColor=#E07A5F;fontColor=#393C56;sketch=1;" parent="1" vertex="1"><mxGeometry x="610" y="290" width="90" height="40" as="geometry"/></mxCell><mxCell id="82" value="Completed Lessons" style="rounded=1;whiteSpace=wrap;html=1;fillColor=#F2CC8F;strokeColor=#E07A5F;fontColor=#393C56;sketch=1;" parent="1" vertex="1"><mxGeometry x="610" y="340" width="90" height="40" as="geometry"/></mxCell><mxCell id="83" value="Name" style="rounded=1;whiteSpace=wrap;html=1;fillColor=#F2CC8F;strokeColor=#E07A5F;fontColor=#393C56;sketch=1;" parent="1" vertex="1"><mxGeometry x="610" y="390" width="90" height="40" as="geometry"/></mxCell><mxCell id="84" value="" style="endArrow=classic;html=1;rounded=0;exitX=0;exitY=0.75;exitDx=0;exitDy=0;entryX=1;entryY=0.5;entryDx=0;entryDy=0;fillColor=#F2CC8F;strokeColor=#E07A5F;labelBackgroundColor=#F4F1DE;fontColor=#393C56;" edge="1" parent="1" source="24" target="11"><mxGeometry relative="1" as="geometry"><mxPoint x="480" y="470" as="sourcePoint"/><mxPoint x="580" y="470" as="targetPoint"/></mxGeometry></mxCell><mxCell id="85" value="Get back to HOME" style="edgeLabel;resizable=0;html=1;align=center;verticalAlign=middle;labelBackgroundColor=#F4F1DE;fontColor=#393C56;" connectable="0" vertex="1" parent="84"><mxGeometry relative="1" as="geometry"/></mxCell></root></mxGraphModel></diagram></mxfile>